<svg xmlns="http://www.w3.org/2000/svg" xmlns:xlink="http://www.w3.org/1999/xlink" viewBox="0 0 16 16"><defs><style>.cls-1{fill:url(#未命名漸層_123);}.cls-2{fill:url(#未命名漸層_105);}.cls-3{fill:url(#未命名漸層_120);}.cls-4{fill:url(#未命名漸層_87);}</style><linearGradient id="未命名漸層_123" x1="4.11" x2="4.11" y2="11.78" gradientUnits="userSpaceOnUse"><stop offset="0.25" stop-color="#4d4d5c"/><stop offset="0.32" stop-color="#4d4d5c" stop-opacity="0.9"/><stop offset="0.42" stop-color="#4d4d5c" stop-opacity="0.64"/><stop offset="0.5" stop-color="#4d4d5c" stop-opacity="0.4"/></linearGradient><linearGradient id="未命名漸層_105" x1="-0.06" y1="10.78" x2="16.02" y2="10.78" gradientUnits="userSpaceOnUse"><stop offset="0.1" stop-color="#41414d"/><stop offset="0.3" stop-color="#543fcc"/><stop offset="0.8" stop-color="#543fcc"/><stop offset="0.88" stop-color="#5d48d4"/><stop offset="1" stop-color="#715ce6"/></linearGradient><linearGradient id="未命名漸層_120" x1="-3.33" y1="3.33" x2="8" y2="14.67" gradientUnits="userSpaceOnUse"><stop offset="0.4" stop-color="#4d4d5c"/><stop offset="0.45" stop-color="#504e65"/><stop offset="0.54" stop-color="#57527d"/><stop offset="0.65" stop-color="#6258a5"/><stop offset="0.78" stop-color="#7361db"/><stop offset="0.85" stop-color="#7d66ff"/></linearGradient><linearGradient id="未命名漸層_87" x1="9.79" y1="10.49" x2="14.16" y2="6.11" gradientUnits="userSpaceOnUse"><stop offset="0.05" stop-color="#7d66ff" stop-opacity="0.4"/><stop offset="0.14" stop-color="#7a63fd" stop-opacity="0.58"/><stop offset="0.23" stop-color="#7861fb" stop-opacity="0.73"/><stop offset="0.33" stop-color="#765ffa" stop-opacity="0.85"/><stop offset="0.42" stop-color="#755ef9" stop-opacity="0.93"/><stop offset="0.51" stop-color="#745df8" stop-opacity="0.98"/><stop offset="0.6" stop-color="#745df8"/><stop offset="0.81" stop-color="#6b54f1"/><stop offset="1" stop-color="#5e47e6"/></linearGradient></defs><g id="圖層_2" data-name="圖層 2"><g id="圖層_1-2" data-name="圖層 1"><path class="cls-1" d="M1.16,11.78V8L5.35,3.87a.71.71,0,0,0,.21-.5.7.7,0,0,0-.71-.7H0V0H4.85A3.37,3.37,0,0,1,7.22,5.77Z"/><path class="cls-2" d="M14.17,11.72l-1.45,1.46a.54.54,0,0,1-.38.15.53.53,0,0,1-.45-.24l-4-6a3.39,3.39,0,0,0-2.82-1.5,3.34,3.34,0,0,0-2.38,1v4L4.54,8.43a.72.72,0,0,1,1.11.11l4,6a3.2,3.2,0,0,0,4.93.49L16,13.61Z"/><path class="cls-3" d="M6.56,12.33a3.09,3.09,0,0,1-2.28,1H2.67V0H0V16H4.28a5.8,5.8,0,0,0,4.24-1.86L9,13.6,7.5,11.32Z"/><polygon class="cls-4" points="14.95 6.9 12.99 5.1 9.36 9.3 10.88 11.59 14.95 6.9"/></g></g></svg>